<svg width="70" height="58" viewBox="0 0 70 58" fill="none" xmlns="http://www.w3.org/2000/svg">
<path d="M38.5147 0H0V26.9724H38.5147V0Z" fill="#F91155"/>
<path d="M69.8197 31.0276H31.2102V57.9999H69.8197V31.0276Z" fill="#06CA99"/>
<path d="M27.131 31.0276H0V57.9999H27.131V31.0276Z" fill="#005BFF"/>
<path d="M63.4639 14.4293C63.0844 17.6358 60.4282 20.1822 57.2028 20.6537C52.4597 21.2196 48.4754 17.2586 49.0446 12.6375C49.424 9.43096 52.0802 6.88462 55.3056 6.41307C60.0488 5.75291 64.033 9.71388 63.4639 14.4293ZM57.6772 0.0943716C49.1394 -0.754409 41.9298 6.31876 42.7836 14.9009C43.4476 21.2196 48.5702 26.3123 54.9261 26.9724C63.4639 27.8212 70.6735 20.748 69.8197 12.1659C69.1557 5.75291 64.033 0.660225 57.6772 0.0943716Z" fill="#005BFF"/>
</svg>
